SplineFontDB: 3.2
FontName: font1
FullName: font1
FamilyName: HexagonDrawing
Weight: Regular
ItalicAngle: 0
UnderlinePosition: 0
UnderlineWidth: 0
Ascent: 1556
Descent: 492
InvalidEm: 0
LayerCount: 2
Layer: 0 0 "Back" 1
Layer: 1 0 "Fore" 0
HasVMetrics: 1
XUID: [1021 411 321256273 6206710]
OS2Version: 0
OS2_WeightWidthSlopeOnly: 0
OS2_UseTypoMetrics: 0
CreationTime: 1715429740
ModificationTime: 1715429792
PfmFamily: 17
TTFWeight: 400
TTFWidth: 5
LineGap: 184
VLineGap: 184
OS2TypoAscent: 0
OS2TypoAOffset: 1
OS2TypoDescent: 0
OS2TypoDOffset: 1
OS2TypoLinegap: 184
OS2WinAscent: 0
OS2WinAOffset: 1
OS2WinDescent: 0
OS2WinDOffset: 1
HheadAscent: 0
HheadAOffset: 1
HheadDescent: 0
HheadDOffset: 1
OS2Vendor: 'PfEd'
DEI: 91125
Encoding: Original
UnicodeInterp: none
NameList: AGL For New Fonts
DisplaySize: -48
AntiAlias: 1
FitToEm: 0
WinInfo: 0 38 14
BeginChars: 80 80

StartChar: 00
Encoding: 1 59392 1
Width: 1233
VWidth: 1024
Flags: HW
LayerCount: 2
Fore
SplineSet
617 627 m 2
 587 627 561 645 548 670 c 0
 0 1765 l 1
 0 1938 l 1
 86 1938 l 1
 665 781 l 1
 1234 781 l 1
 1234 627 l 1
 617 627 l 2
EndSplineSet
Validated: 1
EndChar

StartChar: 01
Encoding: 2 59393 2
Width: 1233
VWidth: 1024
Flags: HW
LayerCount: 2
Fore
SplineSet
616 627 m 2
 -1 627 l 1
 -1 781 l 1
 568 781 l 1
 1147 1938 l 1
 1233 1938 l 1
 1233 1765 l 1
 685 670 l 0
 672 645 646 627 616 627 c 2
EndSplineSet
Validated: 1
EndChar

StartChar: 02
Encoding: 3 59394 3
Width: 1233
VWidth: 1024
Flags: HW
LayerCount: 2
Fore
SplineSet
617 783 m 2
 1234 783 l 1
 1234 628 l 1
 665 628 l 1
 86 -528 l 1
 0 -528 l 1
 0 -355 l 1
 548 740 l 0
 561 765 587 783 617 783 c 2
EndSplineSet
Validated: 1
EndChar

StartChar: 03
Encoding: 4 59395 4
Width: 1233
VWidth: 1024
Flags: HW
LayerCount: 2
Fore
SplineSet
616 783 m 2
 646 783 672 765 685 740 c 0
 1233 -355 l 1
 1233 -528 l 1
 1147 -528 l 1
 568 628 l 1
 -1 628 l 1
 -1 783 l 1
 616 783 l 2
EndSplineSet
Validated: 1
EndChar

StartChar: 04
Encoding: 5 59396 5
Width: 1233
VWidth: 1024
Flags: HW
LayerCount: 2
Fore
SplineSet
1146 1938 m 1
 1233 1938 l 1
 1233 1765 l 1
 702 705 l 1
 1233 -355 l 1
 1233 -528 l 1
 1147 -528 l 1
 548 671 l 1
 543 681 540 693 540 705 c 0
 540 717 543 729 548 739 c 2
 1146 1938 l 1
EndSplineSet
Validated: 1
EndChar

StartChar: 05
Encoding: 6 59397 6
Width: 1233
VWidth: 1024
Flags: HW
LayerCount: 2
Fore
SplineSet
87 1938 m 1
 685 739 l 2
 690 729 693 717 693 705 c 0
 693 693 690 681 685 671 c 1
 86 -528 l 1
 0 -528 l 1
 0 -355 l 1
 531 705 l 1
 0 1765 l 1
 0 1938 l 1
 87 1938 l 1
EndSplineSet
Validated: 1
EndChar

StartChar: 06
Encoding: 7 59398 7
Width: 1233
VWidth: 1024
Flags: HW
LayerCount: 2
Fore
SplineSet
86 1938 m 1
 664 782 l 1
 1233 782 l 1
 1233 628 l 1
 664 628 l 1
 86 -528 l 1
 0 -528 l 1
 0 -356 l 1
 531 705 l 1
 0 1766 l 1
 0 1938 l 1
 86 1938 l 1
EndSplineSet
Validated: 1
EndChar

StartChar: 07
Encoding: 8 59399 8
Width: 1233
VWidth: 1024
Flags: HW
LayerCount: 2
Fore
SplineSet
1147 1938 m 1
 1233 1938 l 1
 1233 1765 l 1
 702 705 l 1
 1233 -356 l 1
 1233 -528 l 1
 1147 -528 l 1
 569 627 l 1
 0 627 l 1
 0 782 l 1
 569 782 l 1
 1147 1938 l 1
EndSplineSet
Validated: 1
EndChar

StartChar: 08
Encoding: 9 59400 9
Width: 1233
VWidth: 1024
Flags: HW
LayerCount: 2
Fore
SplineSet
617 435 m 2
 515 435 421 492 375 583 c 2
 0 1334 l 1
 0 1680 l 1
 513 652 l 2
 533 613 573 588 617 588 c 2
 1234 588 l 1
 1234 435 l 1
 617 435 l 2
736 820 m 2
 736 820 l 0
 706 820 680 837 667 862 c 0
 129 1938 l 1
 301 1938 l 1
 784 974 l 1
 1234 974 l 1
 1234 820 l 1
 736 820 l 2
EndSplineSet
Validated: 5
EndChar

StartChar: 09
Encoding: 10 59401 10
Width: 1233
VWidth: 1024
Flags: HW
LayerCount: 2
Fore
SplineSet
616 435 m 2
 -1 435 l 1
 -1 588 l 1
 616 588 l 2
 660 588 700 613 720 652 c 2
 1233 1680 l 1
 1233 1334 l 1
 858 583 l 2
 812 492 718 435 616 435 c 2
497 820 m 2
 -1 820 l 1
 -1 974 l 1
 449 974 l 1
 932 1938 l 1
 1104 1938 l 1
 566 862 l 0
 553 837 527 820 497 820 c 0
 497 820 l 2
EndSplineSet
Validated: 5
EndChar

StartChar: 0A
Encoding: 11 59402 11
Width: 1233
VWidth: 1024
Flags: HW
LayerCount: 2
Fore
SplineSet
616 975 m 2
 1233 975 l 1
 1233 821 l 1
 616 821 l 2
 572 821 532 796 512 757 c 2
 -1 -270 l 1
 -1 76 l 1
 374 827 l 2
 420 918 514 975 616 975 c 2
735 590 m 2
 1233 590 l 1
 1233 436 l 1
 783 436 l 1
 300 -528 l 1
 128 -528 l 1
 666 548 l 0
 679 573 705 590 735 590 c 0
 735 590 l 2
EndSplineSet
Validated: 5
EndChar

StartChar: 0B
Encoding: 12 59403 12
Width: 1233
VWidth: 1024
Flags: HW
LayerCount: 2
Fore
SplineSet
619 975 m 2
 721 975 815 918 861 827 c 2
 1236 76 l 1
 1236 -270 l 1
 723 757 l 2
 703 796 663 821 619 821 c 2
 2 821 l 1
 2 975 l 1
 619 975 l 2
500 590 m 2
 500 590 l 0
 530 590 556 573 569 548 c 0
 1107 -528 l 1
 935 -528 l 1
 452 436 l 1
 2 436 l 1
 2 590 l 1
 500 590 l 2
EndSplineSet
Validated: 5
EndChar

StartChar: 0C
Encoding: 13 59404 13
Width: 1233
VWidth: 1024
Flags: HW
LayerCount: 2
Fore
SplineSet
931 1938 m 1
 1104 1938 l 1
 513 756 l 2
 497 723 497 687 513 654 c 2
 1104 -528 l 1
 932 -528 l 1
 375 584 l 2
 337 660 337 750 375 826 c 2
 931 1938 l 1
1233 1679 m 1
 1233 1335 l 1
 918 705 l 1
 1233 76 l 1
 1233 -269 l 1
 763 671 l 1
 758 681 755 693 755 705 c 0
 755 717 758 730 763 740 c 2
 1233 1679 l 1
EndSplineSet
Validated: 33
EndChar

StartChar: 0D
Encoding: 14 59405 14
Width: 1233
VWidth: 1024
Flags: HW
LayerCount: 2
Fore
SplineSet
302 1938 m 1
 858 826 l 2
 896 750 896 660 858 584 c 2
 301 -528 l 1
 129 -528 l 1
 720 654 l 2
 736 687 736 723 720 756 c 2
 129 1938 l 1
 302 1938 l 1
0 1679 m 1
 470 740 l 2
 475 730 478 717 478 705 c 0
 478 693 475 681 470 671 c 1
 0 -269 l 1
 0 76 l 1
 315 705 l 1
 0 1335 l 1
 0 1679 l 1
EndSplineSet
Validated: 33
EndChar

StartChar: 0E
Encoding: 15 59406 15
Width: 1233
VWidth: 1024
Flags: HW
LayerCount: 2
Fore
SplineSet
302 1938 m 1
 783 974 l 1
 1233 974 l 1
 1233 821 l 1
 735 821 l 2
 735 821 l 0
 705 821 680 838 667 863 c 0
 129 1938 l 1
 302 1938 l 1
0 1679 m 1
 470 740 l 2
 475 730 478 717 478 705 c 0
 478 693 475 681 470 671 c 1
 0 -269 l 1
 0 76 l 1
 315 705 l 1
 0 1335 l 1
 0 1679 l 1
1233 589 m 1
 1233 436 l 1
 783 436 l 1
 301 -528 l 1
 129 -528 l 1
 667 547 l 2
 680 572 705 589 735 589 c 0
 735 589 l 0
 1233 589 l 1
EndSplineSet
Validated: 5
EndChar

StartChar: 0F
Encoding: 16 59407 16
Width: 1233
VWidth: 1024
Flags: HW
LayerCount: 2
Fore
SplineSet
931 1938 m 1
 1104 1938 l 1
 566 862 l 0
 553 837 527 820 497 820 c 0
 497 820 l 2
 -1 820 l 1
 -1 973 l 1
 449 973 l 1
 931 1938 l 1
1233 1679 m 1
 1233 1334 l 1
 918 704 l 1
 1233 74 l 1
 1233 -271 l 1
 763 670 l 1
 758 680 755 692 755 704 c 0
 755 716 758 729 763 739 c 2
 1233 1679 l 1
-1 588 m 1
 497 588 l 0
 497 588 l 0
 527 588 553 571 566 546 c 2
 1104 -530 l 1
 932 -530 l 1
 449 434 l 1
 -1 434 l 1
 -1 588 l 1
EndSplineSet
Validated: 5
EndChar

StartChar: 10
Encoding: 17 59408 17
Width: 1233
VWidth: 1024
Flags: HW
LayerCount: 2
Fore
SplineSet
1103 1938 m 1
 -1 -272 l 1
 -1 74 l 1
 931 1938 l 1
 1103 1938 l 1
1233 1679 m 1
 1233 1335 l 1
 300 -530 l 1
 128 -530 l 1
 1233 1679 l 1
EndSplineSet
Validated: 1
EndChar

StartChar: 11
Encoding: 18 59409 18
Width: 1233
VWidth: 1024
Flags: HW
LayerCount: 2
Fore
SplineSet
130 1938 m 1
 302 1938 l 1
 1234 74 l 1
 1234 -272 l 1
 130 1938 l 1
0 1679 m 1
 1105 -530 l 1
 933 -530 l 1
 0 1335 l 1
 0 1679 l 1
EndSplineSet
Validated: 1
EndChar

StartChar: 12
Encoding: 19 59410 19
Width: 1233
VWidth: 1024
Flags: HW
LayerCount: 2
Fore
SplineSet
86 1938 m 1
 664 782 l 1
 1233 782 l 1
 1233 628 l 1
 879 628 l 1
 301 -528 l 1
 129 -528 l 1
 707 628 l 1
 616 628 l 2
 586 628 561 646 548 671 c 0
 509 748 l 1
 0 -270 l 1
 0 75 l 1
 423 921 l 1
 0 1765 l 1
 0 1938 l 1
 86 1938 l 1
EndSplineSet
Validated: 1
EndChar

StartChar: 13
Encoding: 20 59411 20
Width: 1233
VWidth: 1024
Flags: HW
LayerCount: 2
Fore
SplineSet
1147 1938 m 1
 1233 1938 l 1
 1233 1765 l 1
 810 921 l 1
 1233 75 l 1
 1233 -270 l 1
 724 748 l 1
 685 671 l 0
 672 646 647 628 617 628 c 2
 526 628 l 1
 1104 -528 l 1
 932 -528 l 1
 354 628 l 1
 0 628 l 1
 0 782 l 1
 569 782 l 1
 1147 1938 l 1
EndSplineSet
Validated: 1
EndChar

StartChar: 14
Encoding: 21 59412 21
Width: 1233
VWidth: 1024
Flags: HW
LayerCount: 2
Fore
SplineSet
86 -528 m 1
 0 -528 l 1
 0 -355 l 1
 423 489 l 1
 0 1335 l 1
 0 1680 l 1
 509 662 l 1
 548 739 l 0
 561 764 586 782 616 782 c 2
 707 782 l 1
 129 1938 l 1
 301 1938 l 1
 879 782 l 1
 1233 782 l 1
 1233 628 l 1
 664 628 l 1
 86 -528 l 1
EndSplineSet
Validated: 1
EndChar

StartChar: 15
Encoding: 22 59413 22
Width: 1233
VWidth: 1024
Flags: HW
LayerCount: 2
Fore
SplineSet
1147 -528 m 1
 569 628 l 1
 0 628 l 1
 0 782 l 1
 354 782 l 1
 932 1938 l 1
 1104 1938 l 1
 526 782 l 1
 617 782 l 2
 647 782 672 764 685 739 c 0
 724 662 l 1
 1233 1680 l 1
 1233 1335 l 1
 810 489 l 1
 1233 -355 l 1
 1233 -528 l 1
 1147 -528 l 1
EndSplineSet
Validated: 1
EndChar

StartChar: 16
Encoding: 23 59414 23
Width: 1233
VWidth: 1024
Flags: HW
LayerCount: 2
Fore
SplineSet
87 1938 m 1
 568 974 l 1
 1233 974 l 1
 1233 821 l 1
 645 821 l 1
 685 739 l 2
 690 729 693 717 693 705 c 0
 693 693 690 681 685 671 c 1
 645 589 l 1
 1233 589 l 1
 1233 436 l 1
 568 436 l 1
 86 -528 l 1
 0 -528 l 1
 0 -355 l 1
 531 705 l 1
 0 1765 l 1
 0 1938 l 1
 87 1938 l 1
EndSplineSet
Validated: 1
EndChar

StartChar: 17
Encoding: 24 59415 24
Width: 1233
VWidth: 1024
Flags: HW
LayerCount: 2
Fore
SplineSet
1146 1938 m 1
 1233 1938 l 1
 1233 1765 l 1
 702 705 l 1
 1233 -355 l 1
 1233 -528 l 1
 1147 -528 l 1
 665 436 l 1
 -0 436 l 1
 -0 589 l 1
 588 589 l 1
 548 671 l 1
 543 681 540 693 540 705 c 0
 540 717 543 729 548 739 c 2
 588 821 l 1
 -0 821 l 1
 -0 974 l 1
 665 974 l 1
 1146 1938 l 1
EndSplineSet
Validated: 1
EndChar

StartChar: 18
Encoding: 25 59416 25
Width: 1233
VWidth: 1024
Flags: HW
LayerCount: 2
Fore
SplineSet
86 -530 m 1
 0 -530 l 1
 0 -358 l 1
 432 507 l 1
 409 528 390 554 375 583 c 2
 0 1334 l 1
 0 1680 l 1
 513 652 l 2
 533 613 573 588 617 588 c 2
 1234 588 l 1
 1234 435 l 1
 617 435 l 2
 601 435 585 435 570 438 c 1
 86 -530 l 1
1234 820 m 1
 736 820 l 0
 736 820 l 0
 706 820 680 837 667 862 c 2
 129 1938 l 1
 301 1938 l 1
 784 974 l 1
 1234 974 l 1
 1234 820 l 1
EndSplineSet
Validated: 5
EndChar

StartChar: 19
Encoding: 26 59417 26
Width: 1233
VWidth: 1024
Flags: HW
LayerCount: 2
Fore
SplineSet
1148 -530 m 1
 664 438 l 1
 649 435 633 435 617 435 c 2
 0 435 l 1
 0 588 l 1
 617 588 l 2
 661 588 701 613 721 652 c 2
 1234 1680 l 1
 1234 1334 l 1
 859 583 l 2
 844 554 825 528 802 507 c 1
 1234 -358 l 1
 1234 -530 l 1
 1148 -530 l 1
0 820 m 1
 0 974 l 1
 450 974 l 1
 933 1938 l 1
 1105 1938 l 1
 567 862 l 2
 554 837 528 820 498 820 c 0
 498 820 l 0
 0 820 l 1
EndSplineSet
Validated: 5
EndChar

StartChar: 1A
Encoding: 27 59418 27
Width: 1233
VWidth: 1024
Flags: HW
LayerCount: 2
Fore
SplineSet
85 1938 m 1
 569 970 l 1
 584 973 600 973 616 973 c 2
 1233 973 l 1
 1233 820 l 1
 616 820 l 2
 572 820 532 795 512 756 c 2
 -1 -272 l 1
 -1 74 l 1
 374 825 l 2
 389 854 408 880 431 901 c 1
 -1 1766 l 1
 -1 1938 l 1
 85 1938 l 1
1233 588 m 1
 1233 434 l 1
 783 434 l 1
 300 -530 l 1
 128 -530 l 1
 666 546 l 2
 679 571 705 588 735 588 c 0
 735 588 l 0
 1233 588 l 1
EndSplineSet
Validated: 5
EndChar

StartChar: 1B
Encoding: 28 59419 28
Width: 1233
VWidth: 1024
Flags: HW
LayerCount: 2
Fore
SplineSet
1148 1938 m 1
 1234 1938 l 1
 1234 1766 l 1
 802 901 l 1
 825 880 844 854 859 825 c 2
 1234 74 l 1
 1234 -272 l 1
 721 756 l 2
 701 795 661 820 617 820 c 2
 0 820 l 1
 0 973 l 1
 617 973 l 2
 633 973 649 973 664 970 c 1
 1148 1938 l 1
0 588 m 1
 498 588 l 0
 498 588 l 0
 528 588 554 571 567 546 c 2
 1105 -530 l 1
 933 -530 l 1
 450 434 l 1
 0 434 l 1
 0 588 l 1
EndSplineSet
Validated: 5
EndChar

StartChar: 1C
Encoding: 29 59420 29
Width: 1233
VWidth: 1024
Flags: HW
LayerCount: 2
Fore
SplineSet
932 1938 m 1
 1105 1938 l 1
 514 756 l 2
 498 723 498 685 514 652 c 2
 1105 -530 l 1
 933 -530 l 1
 376 583 l 2
 369 597 362 612 358 627 c 1
 309 627 l 1
 0 627 l 1
 0 781 l 1
 309 781 l 1
 359 781 l 1
 363 796 369 811 376 825 c 2
 932 1938 l 1
1234 1679 m 1
 1234 1334 l 1
 919 704 l 1
 1234 74 l 1
 1234 -271 l 1
 764 670 l 1
 759 680 756 692 756 704 c 0
 756 716 759 729 764 739 c 2
 1234 1679 l 1
EndSplineSet
Validated: 33
EndChar

StartChar: 1D
Encoding: 30 59421 30
Width: 1233
VWidth: 1024
Flags: HW
LayerCount: 2
Fore
SplineSet
302 1938 m 1
 858 825 l 2
 865 811 871 796 875 781 c 1
 925 781 l 1
 1234 781 l 1
 1234 627 l 1
 925 627 l 1
 876 627 l 1
 872 612 865 597 858 583 c 2
 301 -530 l 1
 129 -530 l 1
 720 652 l 2
 736 685 736 723 720 756 c 2
 129 1938 l 1
 302 1938 l 1
0 1679 m 1
 470 739 l 2
 475 729 478 716 478 704 c 0
 478 692 475 680 470 670 c 1
 0 -271 l 1
 0 74 l 1
 315 704 l 1
 0 1334 l 1
 0 1679 l 1
EndSplineSet
Validated: 33
EndChar

StartChar: 1E
Encoding: 31 59422 31
Width: 1233
VWidth: 1024
Flags: HW
LayerCount: 2
Fore
SplineSet
574 1462 m 0
 553 1476 540 1501 540 1527 c 2
 540 1938 l 1
 540 1938 l 1
 694 1938 l 1
 694 1938 l 1
 694 1568 l 1
 1234 1208 l 1
 1234 1023 l 1
 1014 1169 794 1316 574 1462 c 0
EndSplineSet
Validated: 5
EndChar

StartChar: 1F
Encoding: 32 59423 32
Width: 1233
VWidth: 1024
Flags: HW
LayerCount: 2
Fore
SplineSet
660 1462 m 0
 440 1316 220 1169 -0 1023 c 1
 -0 1208 l 1
 540 1568 l 1
 540 1938 l 1
 540 1938 l 1
 694 1938 l 1
 694 1938 l 1
 694 1527 l 2
 694 1501 681 1476 660 1462 c 0
EndSplineSet
Validated: 5
EndChar

StartChar: 20
Encoding: 33 59424 33
Width: 1233
VWidth: 1024
Flags: HW
LayerCount: 2
Fore
SplineSet
574 -54 m 1
 574 -54 l 1
 794 92 1014 239 1234 385 c 1
 1234 200 l 1
 694 -160 l 1
 694 -530 l 1
 694 -530 l 1
 540 -530 l 1
 540 -530 l 1
 540 -119 l 2
 540 -93 553 -68 574 -54 c 1
EndSplineSet
Validated: 5
EndChar

StartChar: 21
Encoding: 34 59425 34
Width: 1233
VWidth: 1024
Flags: HW
LayerCount: 2
Fore
SplineSet
660 -54 m 0
 681 -68 694 -93 694 -119 c 2
 694 -530 l 1
 694 -530 l 1
 540 -530 l 1
 540 -530 l 1
 540 -160 l 1
 -0 200 l 1
 -0 385 l 1
 220 239 440 92 660 -54 c 0
EndSplineSet
Validated: 5
EndChar

StartChar: 22
Encoding: 35 59426 35
Width: 1233
VWidth: 1024
Flags: HW
LayerCount: 2
Fore
SplineSet
0 385 m 1
 617 -26 l 1
 1234 385 l 1
 1234 200 l 1
 660 -183 l 2
 634 -200 600 -200 574 -183 c 2
 0 200 l 1
 0 385 l 1
EndSplineSet
Validated: 33
EndChar

StartChar: 23
Encoding: 36 59427 36
Width: 1233
VWidth: 1024
Flags: HW
LayerCount: 2
Fore
SplineSet
0 1023 m 1
 0 1208 l 1
 574 1591 l 2
 600 1608 634 1608 660 1591 c 2
 1234 1208 l 1
 1234 1023 l 1
 617 1434 l 1
 0 1023 l 1
EndSplineSet
Validated: 33
EndChar

StartChar: 24
Encoding: 37 59428 37
Width: 1233
VWidth: 1024
Flags: HW
LayerCount: 2
Fore
SplineSet
1234 1023 m 1
 1028 1160 823 1297 617 1434 c 1
 411 1297 206 1160 -0 1023 c 1
 0 1208 l 1
 540 1568 l 1
 540 1938 l 1
 540 1938 l 1
 694 1938 l 1
 694 1938 l 1
 694 1568 l 1
 1234 1208 l 1
 1234 1023 l 1
EndSplineSet
Validated: 5
EndChar

StartChar: 25
Encoding: 38 59429 38
Width: 1233
VWidth: 1024
Flags: HW
LayerCount: 2
Fore
SplineSet
1234 385 m 1
 1234 200 l 1
 694 -160 l 1
 694 -530 l 1
 694 -530 l 1
 540 -530 l 1
 540 -530 l 1
 540 -160 l 1
 0 200 l 1
 -0 385 l 1
 206 248 411 111 617 -26 c 1
 823 111 1028 248 1234 385 c 1
EndSplineSet
Validated: 5
EndChar

StartChar: 26
Encoding: 39 59430 39
Width: 1233
VWidth: 1024
Flags: HW
LayerCount: 2
Fore
SplineSet
1234 385 m 1
 1234 200 l 1
 139 -530 l 1
 -0 -530 l 1
 -0 -437 l 1
 412 -163 822 111 1234 385 c 1
EndSplineSet
Validated: 1
EndChar

StartChar: 27
Encoding: 40 59431 40
Width: 1233
VWidth: 1024
Flags: HW
LayerCount: 2
Fore
SplineSet
0 385 m 1
 412 111 822 -163 1234 -437 c 1
 1234 -530 l 1
 1095 -530 l 1
 0 200 l 1
 0 385 l 1
EndSplineSet
Validated: 1
EndChar

StartChar: 28
Encoding: 41 59432 41
Width: 1233
VWidth: 1024
Flags: HW
LayerCount: 2
Fore
SplineSet
0 200 m 1
 -0 385 l 1
 411 660 823 933 1234 1208 c 1
 1234 1023 l 1
 823 749 412 474 0 200 c 1
EndSplineSet
Validated: 1
EndChar

StartChar: 29
Encoding: 42 59433 42
Width: 1233
VWidth: 1024
Flags: HW
LayerCount: 2
Fore
SplineSet
1234 200 m 1
 822 474 411 749 0 1023 c 1
 0 1208 l 1
 411 933 823 660 1234 385 c 1
 1234 200 l 1
EndSplineSet
Validated: 1
EndChar

StartChar: 2A
Encoding: 43 59434 43
Width: 1233
VWidth: 1024
Flags: HW
LayerCount: 2
Fore
SplineSet
0 1023 m 1
 0 1208 l 1
 1095 1938 l 1
 1234 1938 l 1
 1234 1846 l 1
 822 1572 412 1297 0 1023 c 1
EndSplineSet
Validated: 1
EndChar

StartChar: 2B
Encoding: 44 59435 44
Width: 1233
VWidth: 1024
Flags: HW
LayerCount: 2
Fore
SplineSet
1234 1023 m 1
 822 1297 412 1572 -0 1846 c 1
 -0 1938 l 1
 139 1938 l 1
 1234 1208 l 1
 1234 1023 l 1
EndSplineSet
Validated: 1
EndChar

StartChar: 2C
Encoding: 45 59436 45
Width: 1233
VWidth: 1024
Flags: HW
LayerCount: 2
Fore
SplineSet
1234 791 m 1
 1084 891 l 1
 468 1302 l 2
 393 1352 347 1437 347 1527 c 2
 347 1938 l 1
 501 1938 l 1
 501 1527 l 2
 501 1488 521 1452 553 1430 c 2
 1170 1019 l 1
 1234 976 l 1
 1234 791 l 1
1234 1254 m 1
 767 1565 l 2
 746 1579 733 1602 733 1629 c 0
 733 1630 l 0
 733 1938 l 1
 886 1938 l 1
 886 1671 l 1
 1234 1439 l 1
 1234 1254 l 1
EndSplineSet
Validated: 1
EndChar

StartChar: 2D
Encoding: 46 59437 46
Width: 1233
VWidth: 1024
Flags: HW
LayerCount: 2
Fore
SplineSet
-0 791 m 1
 -0 976 l 1
 64 1019 l 1
 681 1430 l 2
 713 1452 733 1488 733 1527 c 2
 733 1938 l 1
 887 1938 l 1
 887 1527 l 2
 887 1437 841 1352 766 1302 c 2
 150 891 l 1
 -0 791 l 1
-0 1254 m 1
 -0 1439 l 1
 348 1671 l 1
 348 1938 l 1
 501 1938 l 1
 501 1630 l 0
 501 1629 l 0
 501 1602 488 1579 467 1565 c 2
 -0 1254 l 1
EndSplineSet
Validated: 1
EndChar

StartChar: 2E
Encoding: 47 59438 47
Width: 1233
VWidth: 1024
Flags: HW
LayerCount: 2
Fore
SplineSet
1234 617 m 1
 1234 432 l 1
 1170 389 l 1
 553 -22 l 2
 521 -44 501 -80 501 -119 c 2
 501 -530 l 1
 347 -530 l 1
 347 -119 l 2
 347 -29 393 56 468 106 c 2
 1084 517 l 1
 1234 617 l 1
1234 154 m 1
 1234 -31 l 1
 886 -263 l 1
 886 -530 l 1
 733 -530 l 1
 733 -222 l 0
 733 -221 l 0
 733 -194 746 -171 767 -157 c 2
 1234 154 l 1
EndSplineSet
Validated: 1
EndChar

StartChar: 2F
Encoding: 48 59439 48
Width: 1233
VWidth: 1024
Flags: HW
LayerCount: 2
Fore
SplineSet
-0 617 m 1
 150 517 l 1
 766 106 l 2
 841 56 887 -29 887 -119 c 2
 887 -530 l 1
 733 -530 l 1
 733 -119 l 2
 733 -80 713 -44 681 -22 c 2
 64 389 l 1
 -0 432 l 1
 -0 617 l 1
-0 154 m 1
 467 -157 l 2
 488 -171 501 -194 501 -221 c 0
 501 -222 l 0
 501 -530 l 1
 348 -530 l 1
 348 -263 l 1
 -0 -31 l 1
 -0 154 l 1
EndSplineSet
Validated: 1
EndChar

StartChar: 30
Encoding: 49 59440 49
Width: 1233
VWidth: 1024
Flags: HW
LayerCount: 2
Fore
SplineSet
0 617 m 1
 149 517 l 1
 617 206 l 1
 1084 517 l 1
 1234 617 l 1
 1234 432 l 1
 1170 389 l 1
 659 49 l 1
 647 41 633 36 617 36 c 0
 601 36 586 41 574 49 c 2
 64 389 l 1
 0 432 l 1
 0 617 l 1
0 154 m 1
 553 -215 l 2
 592 -241 642 -241 681 -215 c 2
 1234 154 l 1
 1234 -32 l 1
 766 -344 l 2
 676 -404 558 -404 468 -344 c 2
 0 -32 l 1
 0 154 l 1
EndSplineSet
Validated: 33
EndChar

StartChar: 31
Encoding: 50 59441 50
Width: 1233
VWidth: 1024
Flags: HW
LayerCount: 2
Fore
SplineSet
0 791 m 1
 0 977 l 1
 64 1019 l 1
 574 1359 l 2
 586 1367 601 1372 617 1372 c 0
 633 1372 647 1367 659 1359 c 1
 1170 1019 l 1
 1234 976 l 1
 1234 791 l 1
 1084 891 l 1
 617 1202 l 1
 149 891 l 1
 0 791 l 1
0 1254 m 1
 0 1440 l 1
 468 1752 l 2
 558 1812 676 1812 766 1752 c 2
 1234 1440 l 1
 1234 1254 l 1
 681 1623 l 2
 642 1649 592 1649 553 1623 c 2
 0 1254 l 1
EndSplineSet
Validated: 33
EndChar

StartChar: 32
Encoding: 51 59442 51
Width: 1233
VWidth: 1024
Flags: HW
LayerCount: 2
Fore
SplineSet
0 791 m 1
 0 976 l 1
 64 1019 l 1
 575 1359 l 2
 587 1367 601 1372 617 1372 c 0
 633 1372 648 1367 660 1359 c 1
 1170 1019 l 1
 1234 976 l 1
 1234 791 l 1
 1084 891 l 1
 617 1202 l 1
 150 891 l 1
 0 791 l 1
0 1254 m 1
 0 1439 l 1
 348 1671 l 1
 348 1938 l 1
 501 1938 l 1
 501 1630 l 2
 501 1629 l 0
 501 1602 488 1579 467 1565 c 0
 0 1254 l 1
1234 1254 m 1
 767 1565 l 2
 746 1579 733 1602 733 1629 c 0
 733 1630 l 0
 733 1938 l 1
 887 1938 l 1
 887 1671 l 1
 1234 1439 l 1
 1234 1254 l 1
EndSplineSet
Validated: 1
EndChar

StartChar: 33
Encoding: 52 59443 52
Width: 1233
VWidth: 1024
Flags: HW
LayerCount: 2
Fore
SplineSet
0 617 m 1
 150 517 l 1
 617 206 l 1
 1084 517 l 1
 1234 617 l 1
 1234 432 l 1
 1170 389 l 1
 660 49 l 1
 648 41 633 36 617 36 c 0
 601 36 587 41 575 49 c 2
 64 389 l 1
 0 432 l 1
 0 617 l 1
0 154 m 1
 467 -157 l 0
 488 -171 501 -194 501 -221 c 0
 501 -222 l 2
 501 -530 l 1
 348 -530 l 1
 348 -263 l 1
 0 -31 l 1
 0 154 l 1
1234 154 m 1
 1234 -31 l 1
 887 -263 l 1
 887 -530 l 1
 733 -530 l 1
 733 -222 l 0
 733 -221 l 0
 733 -194 746 -171 767 -157 c 2
 1234 154 l 1
EndSplineSet
Validated: 1
EndChar

StartChar: 34
Encoding: 53 59444 53
Width: 1233
VWidth: 1024
Flags: HW
LayerCount: 2
Fore
SplineSet
208 -530 m 1
 1234 154 l 1
 1234 -32 l 1
 487 -530 l 1
 208 -530 l 1
0 -391 m 1
 0 -206 l 1
 1084 517 l 1
 1234 617 l 1
 1234 431 l 1
 1170 389 l 1
 0 -391 l 1
EndSplineSet
Validated: 1
EndChar

StartChar: 35
Encoding: 54 59445 54
Width: 1233
VWidth: 1024
Flags: HW
LayerCount: 2
Fore
SplineSet
1026 -530 m 1
 747 -530 l 1
 -0 -32 l 1
 -0 154 l 1
 1026 -530 l 1
1234 -391 m 1
 64 389 l 1
 -0 431 l 1
 -0 617 l 1
 150 517 l 1
 1234 -206 l 1
 1234 -391 l 1
EndSplineSet
Validated: 1
EndChar

StartChar: 36
Encoding: 55 59446 55
Width: 1233
VWidth: 1024
Flags: HW
LayerCount: 2
Fore
SplineSet
1234 1440 m 1
 1234 1254 l 1
 1170 1211 l 1
 -0 432 l 1
 -0 617 l 1
 1085 1340 l 1
 1234 1440 l 1
1234 977 m 1
 1234 791 l 1
 150 68 l 1
 -0 -32 l 1
 -0 154 l 1
 64 197 l 1
 1234 977 l 1
EndSplineSet
Validated: 1
EndChar

StartChar: 37
Encoding: 56 59447 56
Width: 1233
VWidth: 1024
Flags: HW
LayerCount: 2
Fore
SplineSet
0 1440 m 1
 149 1340 l 1
 1234 617 l 1
 1234 432 l 1
 64 1211 l 1
 0 1254 l 1
 0 1440 l 1
0 977 m 1
 1170 197 l 1
 1234 154 l 1
 1234 -32 l 1
 1084 68 l 1
 0 791 l 1
 0 977 l 1
EndSplineSet
Validated: 1
EndChar

StartChar: 38
Encoding: 57 59448 57
Width: 1233
VWidth: 1024
Flags: HW
LayerCount: 2
Fore
SplineSet
1026 1938 m 1
 -0 1254 l 1
 -0 1440 l 1
 747 1938 l 1
 1026 1938 l 1
1234 1799 m 1
 1234 1614 l 1
 150 891 l 1
 -0 791 l 1
 -0 977 l 1
 64 1019 l 1
 1234 1799 l 1
EndSplineSet
Validated: 1
EndChar

StartChar: 39
Encoding: 58 59449 58
Width: 1233
VWidth: 1024
Flags: HW
LayerCount: 2
Fore
SplineSet
208 1937 m 1
 487 1937 l 1
 1234 1439 l 1
 1234 1254 l 1
 208 1937 l 1
0 1799 m 1
 1170 1019 l 1
 1234 976 l 1
 1234 790 l 1
 1084 890 l 1
 0 1613 l 1
 0 1799 l 1
EndSplineSet
Validated: 1
EndChar

StartChar: 3A
Encoding: 59 59450 59
Width: 1233
VWidth: 1024
Flags: HW
LayerCount: 2
Fore
SplineSet
0 617 m 1
 791 90 l 1
 1234 385 l 1
 1234 200 l 1
 694 -160 l 1
 694 -530 l 1
 694 -530 l 1
 540 -530 l 1
 540 -530 l 1
 540 -392 l 1
 0 -32 l 1
 0 154 l 1
 540 -206 l 1
 540 -119 l 2
 540 -93 553 -68 574 -54 c 0
 600 -37 625 -20 651 -3 c 1
 0 431 l 1
 0 617 l 1
EndSplineSet
Validated: 5
EndChar

StartChar: 3B
Encoding: 60 59451 60
Width: 1233
VWidth: 1024
Flags: HW
LayerCount: 2
Fore
SplineSet
1234 617 m 1
 1234 431 l 1
 583 -3 l 1
 609 -20 634 -37 660 -54 c 0
 681 -68 694 -93 694 -119 c 2
 694 -206 l 1
 1234 154 l 1
 1234 -32 l 1
 694 -392 l 1
 694 -530 l 1
 694 -530 l 1
 540 -530 l 1
 540 -530 l 1
 540 -160 l 1
 -0 200 l 1
 -0 385 l 1
 443 90 l 1
 1234 617 l 1
EndSplineSet
Validated: 5
EndChar

StartChar: 3C
Encoding: 61 59452 61
Width: 1233
VWidth: 1024
Flags: HW
LayerCount: 2
Fore
SplineSet
0 791 m 1
 0 977 l 1
 651 1411 l 1
 625 1428 600 1445 574 1462 c 0
 553 1476 540 1501 540 1527 c 2
 540 1614 l 1
 0 1254 l 1
 0 1440 l 1
 540 1800 l 1
 540 1938 l 1
 540 1938 l 1
 694 1938 l 1
 694 1938 l 1
 694 1568 l 1
 1234 1208 l 1
 1234 1023 l 1
 791 1318 l 1
 0 791 l 1
EndSplineSet
Validated: 5
EndChar

StartChar: 3D
Encoding: 62 59453 62
Width: 1233
VWidth: 1024
Flags: HW
LayerCount: 2
Fore
SplineSet
1234 791 m 1
 443 1318 l 1
 -0 1023 l 1
 -0 1208 l 1
 540 1568 l 1
 540 1938 l 1
 540 1938 l 1
 694 1938 l 1
 694 1938 l 1
 694 1800 l 1
 1234 1440 l 1
 1234 1254 l 1
 694 1614 l 1
 694 1527 l 2
 694 1501 681 1476 660 1462 c 0
 634 1445 609 1428 583 1411 c 1
 1234 977 l 1
 1234 791 l 1
EndSplineSet
Validated: 5
EndChar

StartChar: 3E
Encoding: 63 59454 63
Width: 1233
VWidth: 1024
Flags: HW
LayerCount: 2
Fore
SplineSet
0 1023 m 1
 0 1208 l 1
 347 1440 l 1
 347 1938 l 1
 501 1938 l 1
 501 1542 l 1
 574 1591 l 2
 600 1608 634 1608 660 1591 c 2
 733 1542 l 1
 733 1938 l 1
 886 1938 l 1
 886 1440 l 1
 1234 1208 l 1
 1234 1023 l 1
 617 1434 l 1
 0 1023 l 1
EndSplineSet
Validated: 33
EndChar

StartChar: 3F
Encoding: 64 59455 64
Width: 1233
VWidth: 1024
Flags: HW
LayerCount: 2
Fore
SplineSet
0 385 m 1
 617 -26 l 1
 1234 385 l 1
 1234 200 l 1
 886 -32 l 1
 886 -530 l 1
 733 -530 l 1
 733 -134 l 1
 660 -183 l 2
 634 -200 600 -200 574 -183 c 2
 501 -134 l 1
 501 -530 l 1
 347 -530 l 1
 347 -32 l 1
 0 200 l 1
 0 385 l 1
EndSplineSet
Validated: 33
EndChar

StartChar: 40
Encoding: 65 59456 65
Width: 1233
VWidth: 1024
Flags: HW
LayerCount: 2
Fore
SplineSet
1234 617 m 1
 1234 432 l 1
 553 -22 l 2
 521 -44 501 -80 501 -119 c 2
 501 -530 l 1
 347 -530 l 1
 347 -119 l 2
 347 -92 351 -65 359 -40 c 1
 -0 200 l 1
 -0 385 l 1
 148 286 297 188 445 89 c 1
 452 95 460 101 468 106 c 2
 1234 617 l 1
1234 154 m 1
 1234 -31 l 1
 886 -263 l 1
 886 -530 l 1
 733 -530 l 1
 733 -222 l 2
 733 -196 746 -171 767 -157 c 2
 1234 154 l 1
EndSplineSet
Validated: 1
EndChar

StartChar: 41
Encoding: 66 59457 66
Width: 1233
VWidth: 1024
Flags: HW
LayerCount: 2
Fore
SplineSet
0 617 m 1
 766 106 l 2
 774 101 782 95 789 89 c 1
 937 188 1086 286 1234 385 c 1
 1234 200 l 1
 875 -40 l 1
 883 -65 887 -92 887 -119 c 2
 887 -530 l 1
 733 -530 l 1
 733 -119 l 2
 733 -80 713 -44 681 -22 c 2
 0 432 l 1
 0 617 l 1
0 154 m 1
 467 -157 l 2
 488 -171 501 -196 501 -222 c 2
 501 -530 l 1
 348 -530 l 1
 348 -263 l 1
 0 -31 l 1
 0 154 l 1
EndSplineSet
Validated: 1
EndChar

StartChar: 42
Encoding: 67 59458 67
Width: 1233
VWidth: 1024
Flags: HW
LayerCount: 2
Fore
SplineSet
1234 791 m 1
 468 1302 l 2
 460 1307 452 1313 445 1319 c 1
 297 1220 148 1122 -0 1023 c 1
 -0 1208 l 1
 359 1448 l 1
 351 1473 347 1500 347 1527 c 2
 347 1938 l 1
 501 1938 l 1
 501 1527 l 2
 501 1488 521 1452 553 1430 c 2
 1234 976 l 1
 1234 791 l 1
1234 1254 m 1
 767 1565 l 2
 746 1579 733 1604 733 1630 c 2
 733 1938 l 1
 886 1938 l 1
 886 1671 l 1
 1234 1439 l 1
 1234 1254 l 1
EndSplineSet
Validated: 1
EndChar

StartChar: 43
Encoding: 68 59459 68
Width: 1233
VWidth: 1024
Flags: HW
LayerCount: 2
Fore
SplineSet
0 791 m 1
 0 976 l 1
 681 1430 l 2
 713 1452 733 1488 733 1527 c 2
 733 1938 l 1
 887 1938 l 1
 887 1527 l 2
 887 1500 883 1473 875 1448 c 1
 1234 1208 l 1
 1234 1023 l 1
 1086 1122 937 1220 789 1319 c 1
 782 1313 774 1307 766 1302 c 2
 0 791 l 1
0 1254 m 1
 0 1439 l 1
 348 1671 l 1
 348 1938 l 1
 501 1938 l 1
 501 1630 l 2
 501 1604 488 1579 467 1565 c 2
 0 1254 l 1
EndSplineSet
Validated: 1
EndChar

StartChar: 44
Encoding: 69 59460 69
Width: 1233
VWidth: 1024
Flags: HW
LayerCount: 2
Fore
SplineSet
540 -530 m 2
 540 -530 l 2
 540 -377 l 1
 515 -369 491 -359 468 -344 c 2
 0 -32 l 1
 0 154 l 1
 553 -215 l 2
 592 -241 642 -241 681 -215 c 2
 1234 154 l 1
 1234 -32 l 1
 766 -344 l 2
 743 -359 719 -369 694 -377 c 1
 694 -530 l 1
 694 -530 l 1
 694 -530 l 1
 540 -530 l 2
617 36 m 0
 602 36 587 41 574 49 c 0
 383 177 191 303 0 431 c 1
 0 617 l 1
 617 206 l 1
 1234 617 l 1
 1234 432 l 1
 1043 304 851 177 659 49 c 0
 646 41 632 36 617 36 c 0
EndSplineSet
Validated: 37
EndChar

StartChar: 45
Encoding: 70 59461 70
Width: 1233
VWidth: 1024
Flags: HW
LayerCount: 2
Fore
SplineSet
540 1938 m 2
 694 1938 l 1
 694 1938 l 1
 694 1938 l 1
 694 1785 l 1
 719 1777 743 1767 766 1752 c 2
 1234 1440 l 1
 1234 1254 l 1
 681 1623 l 2
 642 1649 592 1649 553 1623 c 2
 0 1254 l 1
 0 1440 l 1
 468 1752 l 2
 491 1767 515 1777 540 1785 c 1
 540 1938 l 2
 540 1938 l 2
617 1372 m 0
 632 1372 646 1367 659 1359 c 0
 851 1231 1043 1104 1234 976 c 1
 1234 791 l 1
 617 1202 l 1
 0 791 l 1
 0 977 l 1
 191 1105 383 1231 574 1359 c 0
 587 1367 602 1372 617 1372 c 0
EndSplineSet
Validated: 37
EndChar

StartChar: 46
Encoding: 71 59462 71
Width: 1233
VWidth: 1024
Flags: HW
LayerCount: 2
Fore
SplineSet
618 -40 m 0
 634 -40 648 -45 660 -53 c 2
 1234 -435 l 1
 1234 -528 l 1
 1095 -528 l 1
 618 -209 l 1
 140 -528 l 1
 1 -528 l 1
 1 -435 l 1
 575 -53 l 1
 587 -45 602 -40 618 -40 c 0
EndSplineSet
Validated: 1
EndChar

StartChar: 47
Encoding: 72 59463 72
Width: 1233
VWidth: 1024
Flags: HW
LayerCount: 2
Fore
SplineSet
618 1450 m 0
 602 1450 587 1455 575 1463 c 1
 1 1845 l 1
 1 1937 l 1
 140 1937 l 1
 618 1619 l 1
 1095 1937 l 1
 1234 1937 l 1
 1234 1845 l 1
 660 1463 l 2
 648 1455 634 1450 618 1450 c 0
EndSplineSet
Validated: 1
EndChar

StartChar: 48
Encoding: 73 59464 73
Width: 1233
VWidth: 1024
Flags: HW
LayerCount: 2
Fore
SplineSet
1095 1939 m 1
 1234 1939 l 1
 1234 1845 l 1
 694 1486 l 1
 694 -76 l 1
 1234 -435 l 1
 1234 -528 l 1
 1094 -528 l 1
 574 -181 l 0
 553 -167 540 -144 540 -117 c 0
 540 -117 l 2
 540 1528 l 0
 540 1555 553 1577 574 1591 c 2
 1095 1939 l 1
EndSplineSet
Validated: 5
EndChar

StartChar: 49
Encoding: 74 59465 74
Width: 1233
VWidth: 1024
Flags: HW
LayerCount: 2
Fore
SplineSet
139 1938 m 1
 660 1591 l 2
 681 1577 694 1554 694 1527 c 0
 694 -117 l 2
 694 -117 l 0
 694 -144 681 -167 660 -181 c 0
 140 -528 l 1
 -0 -528 l 1
 -0 -436 l 1
 540 -76 l 1
 540 1486 l 1
 -0 1845 l 1
 -0 1938 l 1
 139 1938 l 1
EndSplineSet
Validated: 5
EndChar

StartChar: 4A
Encoding: 75 59466 75
Width: 1233
VWidth: 1024
Flags: HW
LayerCount: 2
Fore
SplineSet
139 1938 m 1
 660 1591 l 2
 681 1577 694 1554 694 1527 c 0
 694 -76 l 1
 1233 -436 l 1
 1233 -528 l 1
 1094 -528 l 1
 617 -210 l 1
 139 -528 l 1
 -0 -528 l 1
 -0 -436 l 1
 540 -76 l 1
 540 1486 l 1
 -0 1845 l 1
 -0 1938 l 1
 139 1938 l 1
EndSplineSet
Validated: 1
EndChar

StartChar: 4B
Encoding: 76 59467 76
Width: 1233
VWidth: 1024
Flags: HW
LayerCount: 2
Fore
SplineSet
1095 1938 m 1
 1234 1938 l 1
 1234 1845 l 1
 694 1486 l 1
 694 -76 l 1
 1234 -436 l 1
 1234 -528 l 1
 1095 -528 l 1
 617 -210 l 1
 140 -528 l 1
 1 -528 l 1
 1 -436 l 1
 540 -76 l 1
 540 1527 l 0
 540 1554 553 1577 574 1591 c 2
 1095 1938 l 1
EndSplineSet
Validated: 1
EndChar

StartChar: 4C
Encoding: 77 59468 77
Width: 1233
VWidth: 1024
Flags: HW
LayerCount: 2
Fore
SplineSet
139 -528 m 1
 -0 -528 l 1
 -0 -436 l 1
 540 -76 l 1
 540 1486 l 1
 -0 1845 l 1
 -0 1938 l 1
 139 1938 l 1
 617 1619 l 1
 1094 1938 l 1
 1233 1938 l 1
 1233 1845 l 1
 694 1486 l 1
 694 -118 l 0
 694 -145 681 -167 660 -181 c 2
 139 -528 l 1
EndSplineSet
Validated: 1
EndChar

StartChar: 4D
Encoding: 78 59469 78
Width: 1233
VWidth: 1024
Flags: HW
LayerCount: 2
Fore
SplineSet
1095 -529 m 1
 574 -182 l 2
 553 -168 540 -145 540 -118 c 0
 540 1485 l 1
 1 1845 l 1
 1 1937 l 1
 140 1937 l 1
 617 1619 l 1
 1095 1937 l 1
 1234 1937 l 1
 1234 1845 l 1
 694 1485 l 1
 694 -77 l 1
 1234 -436 l 1
 1234 -529 l 1
 1095 -529 l 1
EndSplineSet
Validated: 1
EndChar

StartChar: 4E
Encoding: 79 59470 79
Width: 1233
VWidth: 1024
Flags: HW
LayerCount: 2
Fore
SplineSet
0 1938 m 1
 140 1938 l 1
 618 1620 l 1
 1095 1938 l 1
 1234 1938 l 1
 1234 1845 l 1
 695 1487 l 1
 695 -78 l 1
 1234 -436 l 1
 1234 -529 l 1
 1095 -529 l 1
 618 -211 l 1
 141 -529 l 1
 0 -529 l 1
 0 -437 l 1
 541 -77 l 1
 541 1486 l 1
 0 1845 l 1
 0 1938 l 1
EndSplineSet
Validated: 1
EndChar
